<?xml version="1.0" encoding="UTF-8"?>
<svg xmlns="http://www.w3.org/2000/svg" xmlns:xlink="http://www.w3.org/1999/xlink" viewBox="0 0 24 24" width="24px" height="24px">
<g id="surface1470472">
<path style=" stroke:none;fill-rule:nonzero;fill:rgb(100%,100%,100%);fill-opacity:1;" d="M 19.570312 13.140625 C 19.214844 12.878906 19 12.460938 19 12.015625 C 19 11.574219 19.214844 11.15625 19.570312 10.894531 L 21.214844 9.6875 C 21.476562 9.492188 21.585938 9.152344 21.484375 8.84375 C 21.058594 7.570312 20.390625 6.40625 19.492188 5.390625 C 19.273438 5.144531 18.925781 5.070312 18.628906 5.199219 L 16.773438 6.015625 C 16.367188 6.191406 15.898438 6.167969 15.515625 5.945312 C 15.132812 5.726562 14.875 5.332031 14.824219 4.890625 L 14.601562 2.855469 C 14.566406 2.53125 14.328125 2.265625 14.007812 2.203125 C 12.710938 1.9375 11.34375 1.933594 10.023438 2.195312 C 9.703125 2.261719 9.460938 2.527344 9.425781 2.851562 L 9.203125 4.875 C 9.15625 5.3125 8.898438 5.707031 8.515625 5.929688 C 8.132812 6.148438 7.664062 6.175781 7.257812 5.996094 L 5.390625 5.179688 C 5.097656 5.046875 4.746094 5.121094 4.53125 5.367188 C 3.628906 6.382812 2.953125 7.542969 2.527344 8.816406 C 2.421875 9.125 2.53125 9.464844 2.792969 9.660156 L 4.429688 10.859375 C 4.785156 11.121094 5 11.539062 5 11.984375 C 5 12.425781 4.785156 12.84375 4.429688 13.105469 L 2.785156 14.3125 C 2.523438 14.507812 2.414062 14.847656 2.515625 15.15625 C 2.941406 16.429688 3.609375 17.59375 4.507812 18.609375 C 4.726562 18.855469 5.074219 18.933594 5.371094 18.800781 L 7.226562 17.984375 C 7.632812 17.808594 8.101562 17.832031 8.484375 18.054688 C 8.867188 18.273438 9.125 18.667969 9.175781 19.109375 L 9.398438 21.144531 C 9.433594 21.46875 9.671875 21.734375 9.992188 21.796875 C 10.648438 21.933594 11.324219 22 12 22 C 12.660156 22 13.324219 21.933594 13.976562 21.800781 C 14.296875 21.738281 14.539062 21.472656 14.574219 21.148438 L 14.796875 19.125 C 14.84375 18.683594 15.101562 18.292969 15.484375 18.070312 C 15.867188 17.851562 16.339844 17.824219 16.742188 18 L 18.609375 18.820312 C 18.90625 18.953125 19.253906 18.878906 19.46875 18.632812 C 20.371094 17.617188 21.046875 16.457031 21.472656 15.183594 C 21.578125 14.875 21.46875 14.535156 21.207031 14.339844 Z M 12 15.5 C 10.066406 15.5 8.5 13.933594 8.5 12 C 8.5 10.066406 10.066406 8.5 12 8.5 C 13.933594 8.5 15.5 10.066406 15.5 12 C 15.5 13.933594 13.933594 15.5 12 15.5 Z M 12 15.5 "/>
</g>
</svg>
